<svg width="64" height="64" viewBox="0 0 64 64" fill="none" xmlns="http://www.w3.org/2000/svg">
<path d="M51.388 2H12.612C8.96075 2 6.15597 5.23392 6.67234 8.84852L13.5295 56.8485C13.9518 59.8044 16.4833 62 19.4692 62H44.5308C47.5167 62 50.0482 59.8044 50.4705 56.8485L57.3277 8.84853C57.844 5.23393 55.0393 2 51.388 2Z" fill="#8899A6" stroke="white" stroke-width="4"/>
<path d="M14.689 20.5934C14.3262 18.1749 16.1993 16 18.6447 16H45.3553C47.8007 16 49.6738 18.1749 49.311 20.5934L44.511 52.5934C44.2173 54.5514 42.5352 56 40.5553 56H23.4448C21.4648 56 19.7827 54.5514 19.489 52.5934L14.689 20.5934Z" fill="#E9E5DC"/>
</svg>
